# xmcd
#
# Track frame offsets: 
#        150
#        16095
#        30497
#        47552
#        59285
#        75312
#        102842
#        117092
#        132132
#        145772
#        157255
#        171580
#        190982
#        204902
#        225630
#        245445
#        258350
#        274627
#
# Disc length: 3841 seconds
#
# Revision: 3
# Processed by: cddbd v1.5.2PL0 Copyright (c) Steve Scherf et al.
# Submitted via: ExactAudioCopy v1.0b1
#
DISCID=e90eff12
DTITLE=Jerry Lee Lewis - Country Live
DYEAR=1996
DGENRE=Country
TTITLE0=You Win Again
TTITLE1=What's Made Milwaukee Famous
TTITLE2=I Can't Stop Loving You
TTITLE3=Your Cheating Heart
TTITLE4=Middle Age Crazy
TTITLE5=Mexicali Rose
TTITLE6=Bottles and Barstools
TTITLE7=Cold Cold Heart
TTITLE8=Another Place Another Time
TTITLE9=I'll Find it Where I Can
TTITLE10=Careless Hands
TTITLE11=There Must Be More to Love Than This
TTITLE12=Touching Home
TTITLE13=You Are My Sunshine
TTITLE14=Thirty Nine and Holding
TTITLE15=Hey Good Lookin'
TTITLE16=She Even Woke Me Up to Say Goodbye
TTITLE17=Will The Circle Be Broken
EXTD=Torpedo Music Ltd. TORCD026. Made in the EEC [EU]
EXTT0=
EXTT1=
EXTT2=
EXTT3=
EXTT4=
EXTT5=
EXTT6=
EXTT7=
EXTT8=
EXTT9=
EXTT10=
EXTT11=
EXTT12=
EXTT13=
EXTT14=
EXTT15=
EXTT16=
EXTT17=
PLAYORDER=
